HIERARCHY
ROOT Hips
{
	OFFSET	0.000000	0.000000	0.000000
	CHANNELS 6 Xposition Yposition Zposition Zrotation Xrotation Yrotation
	JOINT LeftHip
	{
		OFFSET	4.740440	-3.195970	-0.322709
		CHANNELS 3 Zrotation Xrotation Yrotation
		JOINT LeftKnee
		{
			OFFSET	-1.605680	-15.592300	1.005510
			CHANNELS 3 Zrotation Xrotation Yrotation
			JOINT LeftAnkle
			{
				OFFSET	-0.632401	-16.421000	-1.413730
				CHANNELS 3 Zrotation Xrotation Yrotation
				End Site
				{
					OFFSET	0.008423	-2.933000	-1.684880
				}
			}
		}
	}
	JOINT RightHip
	{
		OFFSET	-4.740440	-3.195970	-0.322709
		CHANNELS 3 Zrotation Xrotation Yrotation
		JOINT RightKnee
		{
			OFFSET	1.605680	-15.592300	1.005510
			CHANNELS 3 Zrotation Xrotation Yrotation
			JOINT RightAnkle
			{
				OFFSET	0.632401	-16.421000	-1.413730
				CHANNELS 3 Zrotation Xrotation Yrotation
				End Site
				{
					OFFSET	-0.008423	-2.933000	-1.684880
				}
			}
		}
	}
	JOINT Chest
	{
		OFFSET	0.000000	3.468200	0.078401
		CHANNELS 3 Zrotation Xrotation Yrotation
		JOINT LeftCollar
		{
			OFFSET	3.857650	15.070700	-0.011583
			CHANNELS 3 Zrotation Xrotation Yrotation
			JOINT LeftShoulder
			{
				OFFSET	3.979720	-1.940530	-0.165223
				CHANNELS 3 Zrotation Xrotation Yrotation
				JOINT LeftElbow
				{
					OFFSET	0.615844	-10.986600	-0.673886
					CHANNELS 3 Zrotation Xrotation Yrotation
					JOINT LeftWrist
					{
						OFFSET	0.826843	-10.854500	1.034220
						CHANNELS 3 Zrotation Xrotation Yrotation
						End Site
						{
							OFFSET	-1.679080	-8.456540	0.936217
						}
					}
				}
			}
		}
		JOINT RightCollar
		{
			OFFSET	-3.857650	15.070700	-0.011583
			CHANNELS 3 Zrotation Xrotation Yrotation
			JOINT RightShoulder
			{
				OFFSET	-3.979720	-1.940530	-0.165223
				CHANNELS 3 Zrotation Xrotation Yrotation
				JOINT RightElbow
				{
					OFFSET	-0.615845	-10.986600	-0.673886
					CHANNELS 3 Zrotation Xrotation Yrotation
					JOINT RightWrist
					{
						OFFSET	-0.826843	-10.854500	1.034220
						CHANNELS 3 Zrotation Xrotation Yrotation
						End Site
						{
							OFFSET	1.679080	-8.456540	0.936217
						}
					}
				}
			}
		}
		JOINT Neck
		{
			OFFSET	0.000000	15.101400	0.055730
			CHANNELS 3 Zrotation Xrotation Yrotation
			JOINT Head
			{
				OFFSET	0.000000	4.185120	1.488260
				CHANNELS 3 Zrotation Xrotation Yrotation
				End Site
				{
					OFFSET	0.000000	7.773420	-0.106016
				}
			}
		}
	}
}
MOTION
Frames:     10
Frame Time: 0.016667
139.393326	37.734665	136.631165	-9.591364	-4.666268	-76.825546	-6.436109	7.222828	-7.687690	-0.800101	2.898114	5.243936	6.398257	-2.875311	5.594853	-11.824218	1.828820	-3.027607	3.793352	19.167271	1.534950	5.330480	-10.060832	-8.751011	-5.897005	4.743146	2.559961	-0.245046	4.102074	-2.690299	4.414957	-5.438093	-9.667771	-9.330478	-3.308748	-12.910810	15.909511	0.607738	-35.568878	2.099586	4.384874	-1.180297	-3.653532	-0.734464	6.968144	0.117038	-7.228581	19.596842	-15.836281	-0.773579	18.790485	0.257665	16.706152	-0.804463	10.869244	12.022614	-15.727879	
139.393967	37.734425	136.632126	-9.591364	-4.666268	-76.825546	-6.439305	7.219442	-7.703693	-0.798247	2.901666	5.260414	6.398257	-2.875311	5.594853	-11.824218	1.828820	-3.027607	3.793352	19.167271	1.534950	5.330480	-10.060832	-8.751011	-5.897581	4.742656	2.560420	-0.244419	4.102538	-2.690710	4.414957	-5.438093	-9.667771	-9.330478	-3.308748	-12.910810	15.909511	0.607738	-35.568878	2.112549	4.387542	-1.195294	-3.665988	-0.737618	6.958412	0.122679	-7.227134	19.597149	-15.845142	-0.782773	18.781260	0.258806	16.705399	-0.805407	10.868793	12.023870	-15.727719	
139.394196	37.734341	136.632462	-9.591364	-4.666268	-76.825546	-6.440431	7.218245	-7.709359	-0.797594	2.902921	5.266245	6.398257	-2.875311	5.594853	-11.824218	1.828820	-3.027607	3.793352	19.167271	1.534950	5.330480	-10.060832	-8.751011	-5.897581	4.742656	2.560420	-0.244419	4.102538	-2.690710	4.414957	-5.438093	-9.667771	-9.330478	-3.308748	-12.910810	15.909511	0.607738	-35.568878	2.116670	4.388286	-1.200173	-3.670151	-0.738673	6.955075	0.124589	-7.226653	19.597242	-15.848107	-0.785867	18.778334	0.258806	16.705399	-0.805407	10.868793	12.023870	-15.727719	
139.394913	37.734066	136.633530	-9.591364	-4.666268	-76.825546	-6.444014	7.214431	-7.727374	-0.795524	2.906919	5.284794	6.398257	-2.875311	5.594853	-11.824218	1.828820	-3.027607	3.793352	19.167271	1.534950	5.330480	-10.060832	-8.751011	-5.897581	4.742656	2.560420	-0.244419	4.102538	-2.690710	4.414957	-5.438093	-9.667771	-9.330478	-3.308748	-12.910810	15.919724	0.621959	-35.568314	2.128688	4.390424	-1.214347	-3.682241	-0.741733	6.946436	0.129790	-7.225343	19.598347	-15.856457	-0.794257	18.768345	0.258806	16.705399	-0.805407	10.868793	12.023870	-15.727719	
139.395157	37.733974	136.633896	-9.591364	-4.666268	-76.825546	-6.445260	7.213107	-7.733641	-0.794804	2.908309	5.291244	6.398257	-2.875311	5.594853	-11.824218	1.828820	-3.027607	3.793352	19.167271	1.534950	5.330480	-10.060832	-8.751011	-5.897581	4.742656	2.560420	-0.244419	4.102538	-2.690710	4.414957	-5.438093	-9.667771	-9.330478	-3.308748	-12.910810	15.925006	0.629360	-35.568020	2.132378	4.391077	-1.218697	-3.685962	-0.742669	6.943746	0.131850	-7.224620	19.595133	-15.859522	-0.797984	18.768658	0.258806	16.705399	-0.805407	10.868793	12.023870	-15.727719	
139.395920	37.733685	136.635040	-9.591364	-4.666268	-76.825546	-6.449068	7.209049	-7.752834	-0.792612	2.912566	5.311004	6.398257	-2.875311	5.594853	-11.824392	1.823520	-3.028726	3.792977	19.172636	1.535767	5.330480	-10.060832	-8.751011	-5.897581	4.742656	2.560420	-0.244419	4.102538	-2.690710	4.414957	-5.438093	-9.667771	-9.330478	-3.308748	-12.910810	15.940289	0.650765	-35.567150	2.140233	4.392404	-1.227927	-3.693900	-0.744568	6.934114	0.134377	-7.224754	19.613419	-15.864985	-0.799754	18.741865	0.241938	16.700415	-0.794088	10.873274	12.037354	-15.748391	
139.396179	37.733585	136.635422	-9.591364	-4.666268	-76.825546	-6.450367	7.207670	-7.759380	-0.791862	2.914014	5.317741	6.398257	-2.875311	5.594853	-11.824813	1.810485	-3.031449	3.792058	19.185827	1.537745	5.330480	-10.060832	-8.751011	-5.897581	4.742656	2.560420	-0.244419	4.102538	-2.690710	4.414957	-5.438093	-9.667771	-9.330478	-3.308748	-12.910810	15.945080	0.657480	-35.566875	2.140233	4.392404	-1.227927	-3.695769	-0.753800	6.923197	0.138721	-7.215789	19.624378	-15.866791	-0.800334	18.733019	0.222085	16.694447	-0.780816	10.866916	12.030213	-15.773900	
139.396973	37.733288	136.636612	-9.591364	-4.666268	-76.825546	-6.454329	7.203436	-7.779434	-0.789589	2.918455	5.338382	6.398257	-2.875311	5.594853	-11.825268	1.796382	-3.034398	3.791062	19.200100	1.539888	5.330480	-10.060832	-8.751011	-5.897581	4.742656	2.560420	-0.244419	4.102538	-2.690710	4.414957	-5.438093	-9.667771	-9.330483	-3.308903	-12.916102	15.959144	0.678906	-35.561020	2.140233	4.392404	-1.227927	-3.697869	-0.765293	6.922368	0.142290	-7.204630	19.625158	-15.872199	-0.802068	18.706453	0.198089	16.687216	-0.764789	10.859739	12.023061	-15.804817	
139.397247	37.733181	136.637024	-9.591364	-4.666268	-76.825546	-6.455686	7.201998	-7.786286	-0.788811	2.919966	5.345432	6.398257	-2.875311	5.594853	-11.825768	1.781057	-3.037582	3.789989	19.215607	1.542196	5.330480	-10.060832	-8.751011	-5.897581	4.742656	2.560420	-0.244419	4.102538	-2.690710	4.414957	-5.438093	-9.667771	-9.330586	-3.309177	-12.929744	15.963736	0.689522	-35.547718	2.140233	4.392404	-1.227927	-3.699078	-0.771804	6.922312	0.144278	-7.198313	19.625183	-15.873951	-0.802624	18.697824	0.186672	16.683760	-0.757182	10.848495	12.023537	-15.852509	
139.398056	37.732876	136.638229	-9.591364	-4.666268	-76.825546	-6.459736	7.197705	-7.806737	-0.786485	2.924476	5.366484	6.398257	-2.875311	5.594853	-11.826311	1.764261	-3.041096	3.788800	19.232603	1.544751	5.330480	-10.060832	-8.751011	-5.897581	4.742656	2.560420	-0.244419	4.102538	-2.690710	4.414957	-5.438093	-9.667771	-9.330710	-3.309514	-12.945604	15.977843	0.714192	-35.531776	2.140233	4.392404	-1.227927	-3.703227	-0.794319	6.922159	0.151115	-7.176462	19.625223	-15.878598	-0.804120	18.674894	0.164102	16.646366	-0.747500	10.857450	12.071093	-15.882175	
